<svg width="16" height="16" viewBox="0 0 16 16" fill="none" xmlns="http://www.w3.org/2000/svg">
<rect width="16" height="16" rx="2" fill="#A82E2E" fill-opacity="0.1"/>
<path d="M3.259 5.114L3.897 5.158C3.875 6.258 3.765 7.303 3.567 8.293L2.951 8.117C3.127 7.171 3.237 6.17 3.259 5.114ZM4.502 3.101H5.228V5.972C5.613 5.554 5.943 5.114 6.207 4.652L6.647 5.202C6.273 5.763 5.8 6.302 5.228 6.83V7.094C5.217 7.842 5.173 8.524 5.096 9.162C5.536 9.734 5.976 10.383 6.438 11.098L5.998 11.758C5.602 10.999 5.25 10.394 4.964 9.943C4.7 11.274 4.249 12.33 3.6 13.1L3.028 12.594C3.996 11.45 4.48 9.624 4.502 7.094V3.101ZM7.131 3.332H12.378V6.225H11.267V6.885H12.752V7.479H11.267V8.183H12.95V8.799H11.322C11.696 9.283 12.279 9.734 13.093 10.13L12.642 10.702C12.29 10.482 11.982 10.251 11.718 10.031C11.443 10.317 11.135 10.57 10.783 10.801L10.431 10.328C10.739 10.119 11.014 9.877 11.256 9.613C10.992 9.338 10.794 9.063 10.64 8.799H8.814C8.616 9.129 8.352 9.426 8.044 9.69C8.363 9.932 8.638 10.163 8.858 10.394L8.429 10.823C8.209 10.581 7.923 10.317 7.571 10.053C7.285 10.24 6.988 10.416 6.658 10.57L6.273 9.932C7.087 9.624 7.703 9.25 8.11 8.799H6.306V8.183H8.242V7.479H6.735V6.885H8.242V6.225H7.131V3.332ZM8.946 8.183H10.574V7.479H8.946V8.183ZM10.574 6.885V6.225H8.946V6.885H10.574ZM11.674 5.686V5.059H7.824V5.686H11.674ZM7.824 4.542H11.674V3.904H7.824V4.542ZM9.309 13.089H8.473L8.319 12.407C8.583 12.44 8.825 12.462 9.067 12.462C9.243 12.462 9.342 12.352 9.342 12.132V9.184H10.09V12.308C10.09 12.825 9.826 13.089 9.309 13.089ZM8.737 10.988L8.902 11.571C8.33 11.945 7.615 12.286 6.757 12.572L6.46 11.89C7.34 11.648 8.099 11.34 8.737 10.988ZM10.728 11.065C11.487 11.373 12.18 11.736 12.807 12.165L12.4 12.803C11.74 12.286 11.058 11.89 10.365 11.604L10.728 11.065Z" fill="#A82E2E"/>
</svg>
